<svg width="248" height="47" viewBox="0 0 248 47" fill="none" xmlns="http://www.w3.org/2000/svg">
<path d="M1.46385 37C1.16885 37 0.906631 36.9017 0.677187 36.705C0.48052 36.4756 0.382187 36.2133 0.382187 35.9183C0.382187 35.7872 0.398576 35.6725 0.431354 35.5742L11.3955 4.20583C11.5266 3.77972 11.7725 3.40278 12.133 3.075C12.4936 2.74722 12.9852 2.58333 13.608 2.58333H24.2772C24.9 2.58333 25.3916 2.74722 25.7522 3.075C26.1127 3.40278 26.3586 3.77972 26.4897 4.20583L37.4539 35.5742C37.4866 35.6725 37.503 35.7872 37.503 35.9183C37.503 36.2133 37.3883 36.4756 37.1589 36.705C36.9622 36.9017 36.7164 37 36.4214 37H27.3255C26.3422 37 25.703 36.5903 25.408 35.7708L24.228 32.5258H13.6572L12.4772 35.7708C12.1822 36.5903 11.543 37 10.5597 37H1.46385ZM21.7205 22.9383L18.918 13.7933L16.1647 22.9383H21.7205Z" fill="#FF851B"/>
<path d="M41.0373 46.3417C40.6767 46.3417 40.3653 46.2106 40.1031 45.9483C39.8409 45.6861 39.7098 45.3747 39.7098 45.0142V12.7608C39.7098 12.4003 39.8409 12.0889 40.1031 11.8267C40.3653 11.5644 40.6767 11.4333 41.0373 11.4333H49.3956C49.7562 11.4333 50.0675 11.5644 50.3298 11.8267C50.592 12.0889 50.7231 12.4003 50.7231 12.7608V14.2358C51.5098 13.2197 52.5095 12.4167 53.7223 11.8267C54.9678 11.2367 56.3937 10.9417 57.9998 10.9417C61.0481 10.9417 63.5064 11.8594 65.3748 13.695C67.2431 15.5306 68.2592 18.3986 68.4231 22.2992C68.4559 22.7908 68.4723 23.43 68.4723 24.2167C68.4723 25.0361 68.4559 25.6917 68.4231 26.1833C68.292 29.8872 67.2595 32.7061 65.3256 34.64C63.4245 36.5411 60.9825 37.4917 57.9998 37.4917C55.017 37.4917 52.8373 36.5083 51.4606 34.5417V45.0142C51.4606 45.3747 51.3295 45.6861 51.0673 45.9483C50.805 46.2106 50.4937 46.3417 50.1331 46.3417H41.0373ZM53.9189 28.6908C54.7712 28.6908 55.3612 28.4614 55.6889 28.0025C56.0495 27.5436 56.2789 26.8225 56.3773 25.8392C56.4428 25.1836 56.4756 24.6428 56.4756 24.2167C56.4756 23.7906 56.4428 23.2497 56.3773 22.5942C56.2789 21.6108 56.0495 20.8897 55.6889 20.4308C55.3612 19.9719 54.7712 19.7425 53.9189 19.7425C53.0667 19.7425 52.4603 19.9883 52.0998 20.48C51.7392 20.9389 51.5262 21.6436 51.4606 22.5942C51.4278 23.0858 51.4114 23.6922 51.4114 24.4133C51.4114 25.1344 51.4278 25.7408 51.4606 26.2325C51.5262 27.0519 51.7392 27.6747 52.0998 28.1008C52.4931 28.4942 53.0995 28.6908 53.9189 28.6908ZM73.543 37C73.1824 37 72.871 36.8689 72.6088 36.6067C72.3466 36.3444 72.2155 36.0331 72.2155 35.6725V12.7608C72.2155 12.4003 72.3466 12.0889 72.6088 11.8267C72.871 11.5644 73.1824 11.4333 73.543 11.4333H82.1471C82.5077 11.4333 82.8191 11.5644 83.0813 11.8267C83.3435 12.0889 83.4746 12.4003 83.4746 12.7608V14.4817C84.5563 13.5311 85.7527 12.7936 87.0638 12.2692C88.3749 11.7119 89.7352 11.4333 91.1446 11.4333H93.5046C93.8652 11.4333 94.1766 11.5644 94.4388 11.8267C94.701 12.0889 94.8321 12.4003 94.8321 12.7608V20.4308C94.8321 20.7914 94.701 21.1028 94.4388 21.365C94.1766 21.6272 93.8652 21.7583 93.5046 21.7583H87.1621C85.1955 21.7583 84.2121 22.7417 84.2121 24.7083V35.6725C84.2121 36.0331 84.081 36.3444 83.8188 36.6067C83.5566 36.8689 83.2452 37 82.8846 37H73.543ZM111.233 37.4917C102.219 37.4917 97.4664 33.8369 96.9747 26.5275C96.9419 26.0358 96.9256 25.2656 96.9256 24.2167C96.9256 23.1678 96.9419 22.3975 96.9747 21.9058C97.2042 18.3331 98.5644 15.6125 101.056 13.7442C103.547 11.8758 106.939 10.9417 111.233 10.9417C115.527 10.9417 118.919 11.8758 121.411 13.7442C123.902 15.6125 125.262 18.3331 125.491 21.9058C125.557 22.8892 125.59 23.6594 125.59 24.2167C125.59 24.7739 125.557 25.5442 125.491 26.5275C125 33.8369 120.247 37.4917 111.233 37.4917ZM111.233 29.625C112.118 29.625 112.692 29.3956 112.954 28.9367C113.216 28.445 113.38 27.56 113.446 26.2817C113.478 25.9539 113.495 25.2656 113.495 24.2167C113.495 23.1678 113.478 22.4794 113.446 22.1517C113.347 20.9061 113.167 20.0375 112.905 19.5458C112.642 19.0542 112.085 18.8083 111.233 18.8083C110.381 18.8083 109.824 19.0542 109.561 19.5458C109.299 20.0375 109.119 20.9061 109.021 22.1517L108.971 24.2167L109.021 26.2817C109.086 27.56 109.25 28.445 109.512 28.9367C109.774 29.3956 110.348 29.625 111.233 29.625ZM127.172 37C126.844 37 126.566 36.8853 126.336 36.6558C126.107 36.4264 125.992 36.1478 125.992 35.82C125.992 35.5578 126.058 35.3447 126.189 35.1808L134.154 23.8233L127.074 13.2525C126.943 13.0558 126.877 12.8428 126.877 12.6133C126.877 12.2856 126.992 12.0069 127.221 11.7775C127.451 11.5481 127.729 11.4333 128.057 11.4333H137.055C137.481 11.4333 137.809 11.5317 138.038 11.7283C138.268 11.8922 138.464 12.1053 138.628 12.3675L141.48 16.7433L144.331 12.3675C144.495 12.1053 144.692 11.8922 144.921 11.7283C145.151 11.5317 145.479 11.4333 145.905 11.4333H154.509C154.837 11.4333 155.115 11.5481 155.345 11.7775C155.574 12.0069 155.689 12.2692 155.689 12.5642C155.689 12.8264 155.623 13.0558 155.492 13.2525L148.265 23.7742L156.377 35.1808C156.508 35.3447 156.574 35.5578 156.574 35.82C156.574 36.1478 156.459 36.4264 156.23 36.6558C156 36.8853 155.722 37 155.394 37H145.954C145.561 37 145.266 36.9344 145.069 36.8033C144.872 36.6394 144.676 36.4264 144.479 36.1642L141.234 31.395L137.841 36.1642C137.481 36.7214 136.989 37 136.366 37H127.172ZM160.551 8.72916C160.19 8.72916 159.879 8.59805 159.617 8.33583C159.354 8.07361 159.223 7.76222 159.223 7.40166V1.4525C159.223 1.09194 159.354 0.780553 159.617 0.51833C159.879 0.256107 160.19 0.124996 160.551 0.124996H168.86C169.22 0.124996 169.532 0.256107 169.794 0.51833C170.056 0.780553 170.187 1.09194 170.187 1.4525V7.40166C170.187 7.76222 170.056 8.07361 169.794 8.33583C169.532 8.59805 169.22 8.72916 168.86 8.72916H160.551ZM160.305 37C159.944 37 159.633 36.8689 159.371 36.6067C159.108 36.3444 158.977 36.0331 158.977 35.6725V12.7608C158.977 12.4003 159.108 12.0889 159.371 11.8267C159.633 11.5644 159.944 11.4333 160.305 11.4333H169.106C169.466 11.4333 169.778 11.5644 170.04 11.8267C170.302 12.0889 170.433 12.4003 170.433 12.7608V35.6725C170.433 36.0331 170.302 36.3444 170.04 36.6067C169.778 36.8689 169.466 37 169.106 37H160.305ZM176.198 37C175.837 37 175.526 36.8689 175.263 36.6067C175.001 36.3444 174.87 36.0331 174.87 35.6725V12.7608C174.87 12.4003 175.001 12.0889 175.263 11.8267C175.526 11.5644 175.837 11.4333 176.198 11.4333H184.31C184.671 11.4333 184.982 11.5644 185.244 11.8267C185.506 12.0889 185.638 12.4003 185.638 12.7608V14.3833C186.326 13.4656 187.326 12.6625 188.637 11.9742C189.948 11.2858 191.423 10.9417 193.062 10.9417C196.569 10.9417 198.962 12.2856 200.24 14.9733C201.027 13.8261 202.108 12.8756 203.485 12.1217C204.862 11.335 206.288 10.9417 207.763 10.9417C210.418 10.9417 212.581 11.8594 214.253 13.695C215.957 15.4978 216.809 18.2347 216.809 21.9058V35.6725C216.809 36.0331 216.678 36.3444 216.416 36.6067C216.154 36.8689 215.842 37 215.482 37H206.828C206.468 37 206.156 36.8689 205.894 36.6067C205.632 36.3444 205.501 36.0331 205.501 35.6725V22.1517C205.501 21.365 205.321 20.775 204.96 20.3817C204.632 19.9556 204.157 19.7425 203.534 19.7425C202.911 19.7425 202.436 19.9556 202.108 20.3817C201.781 20.775 201.617 21.365 201.617 22.1517V35.6725C201.617 36.0331 201.486 36.3444 201.223 36.6067C200.961 36.8689 200.65 37 200.289 37H191.636C191.275 37 190.964 36.8689 190.702 36.6067C190.44 36.3444 190.308 36.0331 190.308 35.6725V22.1517C190.308 21.365 190.128 20.775 189.768 20.3817C189.44 19.9556 188.965 19.7425 188.342 19.7425C187.719 19.7425 187.227 19.9556 186.867 20.3817C186.539 20.8078 186.375 21.3978 186.375 22.1517V35.6725C186.375 36.0331 186.244 36.3444 185.982 36.6067C185.72 36.8689 185.408 37 185.048 37H176.198ZM229.174 37.4917C227.338 37.4917 225.683 37.1475 224.208 36.4592C222.765 35.7708 221.635 34.8367 220.815 33.6567C220.029 32.4767 219.635 31.1492 219.635 29.6742C219.635 25.2492 223.224 22.4139 230.403 21.1683L235.614 20.3325V20.2833C235.614 19.3328 235.532 18.6936 235.369 18.3658C235.205 18.0053 234.795 17.825 234.139 17.825C233.779 17.825 233.467 17.8906 233.205 18.0217C232.943 18.1528 232.664 18.3494 232.369 18.6117C232.074 18.8739 231.812 19.0706 231.583 19.2017C231.386 19.3328 231.107 19.3983 230.747 19.3983H222.389C222.094 19.3983 221.831 19.3164 221.602 19.1525C221.405 18.9558 221.307 18.71 221.307 18.415C221.307 17.4644 221.766 16.3992 222.684 15.2192C223.634 14.0392 225.076 13.0394 227.01 12.22C228.977 11.3678 231.386 10.9417 234.238 10.9417C238.63 10.9417 241.924 11.8594 244.12 13.695C246.316 15.5306 247.414 18.1528 247.414 21.5617V35.6725C247.414 36.0331 247.283 36.3444 247.021 36.6067C246.759 36.8689 246.447 37 246.087 37H237.483C237.122 37 236.811 36.8689 236.549 36.6067C236.286 36.3444 236.155 36.0331 236.155 35.6725V34.2958C235.434 35.2792 234.467 36.0658 233.254 36.6558C232.042 37.2131 230.681 37.4917 229.174 37.4917ZM232.566 30.215C233.549 30.215 234.32 29.9036 234.877 29.2808C235.467 28.6581 235.762 27.7075 235.762 26.4292V26.38L232.861 27.0192C231.419 27.3469 230.698 27.9533 230.698 28.8383C230.698 29.2317 230.862 29.5594 231.189 29.8217C231.517 30.0839 231.976 30.215 232.566 30.215Z" fill="white"/>
</svg>
