<svg width="126" height="24" viewBox="0 0 126 24" fill="none" xmlns="http://www.w3.org/2000/svg">
<path d="M0.744336 19C0.594336 19 0.461003 18.95 0.344336 18.85C0.244336 18.7333 0.194336 18.6 0.194336 18.45C0.194336 18.3833 0.202669 18.325 0.219336 18.275L5.79434 2.325C5.861 2.10833 5.986 1.91667 6.16934 1.75C6.35267 1.58333 6.60267 1.5 6.91934 1.5H12.3443C12.661 1.5 12.911 1.58333 13.0943 1.75C13.2777 1.91667 13.4027 2.10833 13.4693 2.325L19.0443 18.275C19.061 18.325 19.0693 18.3833 19.0693 18.45C19.0693 18.6 19.011 18.7333 18.8943 18.85C18.7943 18.95 18.6693 19 18.5193 19H13.8943C13.3943 19 13.0693 18.7917 12.9193 18.375L12.3193 16.725H6.94434L6.34434 18.375C6.19434 18.7917 5.86934 19 5.36934 19H0.744336ZM11.0443 11.85L9.61934 7.2L8.21934 11.85H11.0443Z" fill="#FF851B"/>
<path d="M20.8664 23.75C20.6831 23.75 20.5247 23.6833 20.3914 23.55C20.2581 23.4167 20.1914 23.2583 20.1914 23.075V6.675C20.1914 6.49167 20.2581 6.33333 20.3914 6.2C20.5247 6.06667 20.6831 6 20.8664 6H25.1164C25.2997 6 25.4581 6.06667 25.5914 6.2C25.7247 6.33333 25.7914 6.49167 25.7914 6.675V7.425C26.1914 6.90833 26.6997 6.5 27.3164 6.2C27.9497 5.9 28.6747 5.75 29.4914 5.75C31.0414 5.75 32.2914 6.21667 33.2414 7.15C34.1914 8.08333 34.7081 9.54167 34.7914 11.525C34.8081 11.775 34.8164 12.1 34.8164 12.5C34.8164 12.9167 34.8081 13.25 34.7914 13.5C34.7247 15.3833 34.1997 16.8167 33.2164 17.8C32.2497 18.7667 31.0081 19.25 29.4914 19.25C27.9747 19.25 26.8664 18.75 26.1664 17.75V23.075C26.1664 23.2583 26.0997 23.4167 25.9664 23.55C25.8331 23.6833 25.6747 23.75 25.4914 23.75H20.8664ZM27.4164 14.775C27.8497 14.775 28.1497 14.6583 28.3164 14.425C28.4997 14.1917 28.6164 13.825 28.6664 13.325C28.6997 12.9917 28.7164 12.7167 28.7164 12.5C28.7164 12.2833 28.6997 12.0083 28.6664 11.675C28.6164 11.175 28.4997 10.8083 28.3164 10.575C28.1497 10.3417 27.8497 10.225 27.4164 10.225C26.9831 10.225 26.6747 10.35 26.4914 10.6C26.3081 10.8333 26.1997 11.1917 26.1664 11.675C26.1497 11.925 26.1414 12.2333 26.1414 12.6C26.1414 12.9667 26.1497 13.275 26.1664 13.525C26.1997 13.9417 26.3081 14.2583 26.4914 14.475C26.6914 14.675 26.9997 14.775 27.4164 14.775ZM37.3947 19C37.2114 19 37.0531 18.9333 36.9197 18.8C36.7864 18.6667 36.7197 18.5083 36.7197 18.325V6.675C36.7197 6.49167 36.7864 6.33333 36.9197 6.2C37.0531 6.06667 37.2114 6 37.3947 6H41.7697C41.9531 6 42.1114 6.06667 42.2447 6.2C42.3781 6.33333 42.4447 6.49167 42.4447 6.675V7.55C42.9947 7.06667 43.6031 6.69167 44.2697 6.425C44.9364 6.14167 45.6281 6 46.3447 6H47.5447C47.7281 6 47.8864 6.06667 48.0197 6.2C48.1531 6.33333 48.2197 6.49167 48.2197 6.675V10.575C48.2197 10.7583 48.1531 10.9167 48.0197 11.05C47.8864 11.1833 47.7281 11.25 47.5447 11.25H44.3197C43.3197 11.25 42.8197 11.75 42.8197 12.75V18.325C42.8197 18.5083 42.7531 18.6667 42.6197 18.8C42.4864 18.9333 42.3281 19 42.1447 19H37.3947ZM56.5592 19.25C51.9758 19.25 49.5592 17.3917 49.3092 13.675C49.2925 13.425 49.2842 13.0333 49.2842 12.5C49.2842 11.9667 49.2925 11.575 49.3092 11.325C49.4258 9.50833 50.1175 8.125 51.3842 7.175C52.6508 6.225 54.3758 5.75 56.5592 5.75C58.7425 5.75 60.4675 6.225 61.7342 7.175C63.0008 8.125 63.6925 9.50833 63.8092 11.325C63.8425 11.825 63.8592 12.2167 63.8592 12.5C63.8592 12.7833 63.8425 13.175 63.8092 13.675C63.5592 17.3917 61.1425 19.25 56.5592 19.25ZM56.5592 15.25C57.0092 15.25 57.3008 15.1333 57.4342 14.9C57.5675 14.65 57.6508 14.2 57.6842 13.55C57.7008 13.3833 57.7092 13.0333 57.7092 12.5C57.7092 11.9667 57.7008 11.6167 57.6842 11.45C57.6342 10.8167 57.5425 10.375 57.4092 10.125C57.2758 9.875 56.9925 9.75 56.5592 9.75C56.1258 9.75 55.8425 9.875 55.7092 10.125C55.5758 10.375 55.4842 10.8167 55.4342 11.45L55.4092 12.5L55.4342 13.55C55.4675 14.2 55.5508 14.65 55.6842 14.9C55.8175 15.1333 56.1092 15.25 56.5592 15.25ZM64.6639 19C64.4972 19 64.3555 18.9417 64.2389 18.825C64.1222 18.7083 64.0639 18.5667 64.0639 18.4C64.0639 18.2667 64.0972 18.1583 64.1639 18.075L68.2139 12.3L64.6139 6.925C64.5472 6.825 64.5139 6.71667 64.5139 6.6C64.5139 6.43333 64.5722 6.29167 64.6889 6.175C64.8055 6.05833 64.9472 6 65.1139 6H69.6889C69.9055 6 70.0722 6.05 70.1889 6.15C70.3055 6.23333 70.4055 6.34167 70.4889 6.475L71.9389 8.7L73.3889 6.475C73.4722 6.34167 73.5722 6.23333 73.6889 6.15C73.8055 6.05 73.9722 6 74.1889 6H78.5639C78.7305 6 78.8722 6.05833 78.9889 6.175C79.1055 6.29167 79.1639 6.425 79.1639 6.575C79.1639 6.70833 79.1305 6.825 79.0639 6.925L75.3889 12.275L79.5139 18.075C79.5805 18.1583 79.6139 18.2667 79.6139 18.4C79.6139 18.5667 79.5555 18.7083 79.4389 18.825C79.3222 18.9417 79.1805 19 79.0139 19H74.2139C74.0139 19 73.8639 18.9667 73.7639 18.9C73.6639 18.8167 73.5639 18.7083 73.4639 18.575L71.8139 16.15L70.0889 18.575C69.9055 18.8583 69.6555 19 69.3389 19H64.6639ZM81.6359 4.625C81.4526 4.625 81.2943 4.55833 81.1609 4.425C81.0276 4.29167 80.9609 4.13333 80.9609 3.95V0.924999C80.9609 0.741666 81.0276 0.583333 81.1609 0.449999C81.2943 0.316665 81.4526 0.249999 81.6359 0.249999H85.8609C86.0443 0.249999 86.2026 0.316665 86.3359 0.449999C86.4693 0.583333 86.5359 0.741666 86.5359 0.924999V3.95C86.5359 4.13333 86.4693 4.29167 86.3359 4.425C86.2026 4.55833 86.0443 4.625 85.8609 4.625H81.6359ZM81.5109 19C81.3276 19 81.1693 18.9333 81.0359 18.8C80.9026 18.6667 80.8359 18.5083 80.8359 18.325V6.675C80.8359 6.49167 80.9026 6.33333 81.0359 6.2C81.1693 6.06667 81.3276 6 81.5109 6H85.9859C86.1693 6 86.3276 6.06667 86.4609 6.2C86.5943 6.33333 86.6609 6.49167 86.6609 6.675V18.325C86.6609 18.5083 86.5943 18.6667 86.4609 18.8C86.3276 18.9333 86.1693 19 85.9859 19H81.5109ZM89.592 19C89.4087 19 89.2503 18.9333 89.117 18.8C88.9837 18.6667 88.917 18.5083 88.917 18.325V6.675C88.917 6.49167 88.9837 6.33333 89.117 6.2C89.2503 6.06667 89.4087 6 89.592 6H93.717C93.9003 6 94.0587 6.06667 94.192 6.2C94.3253 6.33333 94.392 6.49167 94.392 6.675V7.5C94.742 7.03333 95.2503 6.625 95.917 6.275C96.5837 5.925 97.3337 5.75 98.167 5.75C99.9503 5.75 101.167 6.43333 101.817 7.8C102.217 7.21667 102.767 6.73333 103.467 6.35C104.167 5.95 104.892 5.75 105.642 5.75C106.992 5.75 108.092 6.21667 108.942 7.15C109.809 8.06667 110.242 9.45833 110.242 11.325V18.325C110.242 18.5083 110.175 18.6667 110.042 18.8C109.909 18.9333 109.75 19 109.567 19H105.167C104.984 19 104.825 18.9333 104.692 18.8C104.559 18.6667 104.492 18.5083 104.492 18.325V11.45C104.492 11.05 104.4 10.75 104.217 10.55C104.05 10.3333 103.809 10.225 103.492 10.225C103.175 10.225 102.934 10.3333 102.767 10.55C102.6 10.75 102.517 11.05 102.517 11.45V18.325C102.517 18.5083 102.45 18.6667 102.317 18.8C102.184 18.9333 102.025 19 101.842 19H97.442C97.2587 19 97.1003 18.9333 96.967 18.8C96.8337 18.6667 96.767 18.5083 96.767 18.325V11.45C96.767 11.05 96.6753 10.75 96.492 10.55C96.3253 10.3333 96.0837 10.225 95.767 10.225C95.4503 10.225 95.2003 10.3333 95.017 10.55C94.8503 10.7667 94.767 11.0667 94.767 11.45V18.325C94.767 18.5083 94.7003 18.6667 94.567 18.8C94.4337 18.9333 94.2753 19 94.092 19H89.592ZM116.529 19.25C115.596 19.25 114.754 19.075 114.004 18.725C113.271 18.375 112.696 17.9 112.279 17.3C111.879 16.7 111.679 16.025 111.679 15.275C111.679 13.025 113.504 11.5833 117.154 10.95L119.804 10.525V10.5C119.804 10.0167 119.762 9.69167 119.679 9.525C119.596 9.34167 119.387 9.25 119.054 9.25C118.871 9.25 118.712 9.28333 118.579 9.35C118.446 9.41667 118.304 9.51667 118.154 9.65C118.004 9.78333 117.871 9.88333 117.754 9.95C117.654 10.0167 117.512 10.05 117.329 10.05H113.079C112.929 10.05 112.796 10.0083 112.679 9.925C112.579 9.825 112.529 9.7 112.529 9.55C112.529 9.06667 112.762 8.525 113.229 7.925C113.712 7.325 114.446 6.81667 115.429 6.4C116.429 5.96667 117.654 5.75 119.104 5.75C121.337 5.75 123.012 6.21667 124.129 7.15C125.246 8.08333 125.804 9.41667 125.804 11.15V18.325C125.804 18.5083 125.737 18.6667 125.604 18.8C125.471 18.9333 125.312 19 125.129 19H120.754C120.571 19 120.412 18.9333 120.279 18.8C120.146 18.6667 120.079 18.5083 120.079 18.325V17.625C119.712 18.125 119.221 18.525 118.604 18.825C117.987 19.1083 117.296 19.25 116.529 19.25ZM118.254 15.55C118.754 15.55 119.146 15.3917 119.429 15.075C119.729 14.7583 119.879 14.275 119.879 13.625V13.6L118.404 13.925C117.671 14.0917 117.304 14.4 117.304 14.85C117.304 15.05 117.387 15.2167 117.554 15.35C117.721 15.4833 117.954 15.55 118.254 15.55Z" fill="black"/>
</svg>
