<svg width="28" height="28" viewBox="0 0 28 28" fill="none" xmlns="http://www.w3.org/2000/svg">
<path d="M13.8985 15.0872C13.9275 15.0872 13.9565 15.0872 13.9913 15.0872C14.0029 15.0872 14.0145 15.0872 14.0261 15.0872C14.0434 15.0872 14.0666 15.0872 14.084 15.0872C15.7829 15.0582 17.1571 14.461 18.1718 13.3187C20.4042 10.8022 20.0331 6.4883 19.9925 6.07662C19.8475 2.98613 18.3864 1.50756 17.1803 0.817561C16.2816 0.301512 15.2321 0.0231932 14.0608 0H14.0203C14.0145 0 14.0029 0 13.9971 0H13.9623C13.3187 0 12.0546 0.104369 10.8428 0.794367C9.62514 1.48437 8.14077 2.96293 7.99582 6.07662C7.95523 6.4883 7.58414 10.8022 9.81648 13.3187C10.8254 14.461 12.1996 15.0582 13.8985 15.0872ZM9.54396 6.22158C9.54396 6.20418 9.54976 6.18679 9.54976 6.17519C9.74111 2.01781 12.6924 1.57134 13.9565 1.57134H13.9797C13.9913 1.57134 14.0087 1.57134 14.0261 1.57134C15.5916 1.60613 18.253 2.24394 18.4328 6.17519C18.4328 6.19259 18.4328 6.20998 18.4386 6.22158C18.4444 6.26217 18.8502 10.205 17.0064 12.2808C16.2758 13.1042 15.3017 13.51 14.0203 13.5216C14.0087 13.5216 14.0029 13.5216 13.9913 13.5216C13.9797 13.5216 13.9739 13.5216 13.9623 13.5216C12.6866 13.51 11.7067 13.1042 10.9819 12.2808C9.14388 10.2166 9.53817 6.25637 9.54396 6.22158Z" fill="#565656"/>
<path d="M25.9068 22.2423C25.9068 22.2365 25.9068 22.2307 25.9068 22.2249C25.9068 22.1785 25.901 22.1321 25.901 22.0799C25.8662 20.9319 25.7908 18.2472 23.2743 17.3891C23.2569 17.3833 23.2337 17.3775 23.2163 17.3717C20.6013 16.7049 18.4269 15.1973 18.4038 15.1799C18.0501 14.9306 17.563 15.0176 17.3137 15.3713C17.0643 15.725 17.1513 16.212 17.505 16.4614C17.6036 16.5309 19.9113 18.1371 22.7989 18.8793C24.1499 19.3605 24.3006 20.8043 24.3412 22.1263C24.3412 22.1785 24.3412 22.2249 24.347 22.2713C24.3528 22.7931 24.318 23.5991 24.2253 24.0629C23.2859 24.5964 19.604 26.4402 14.0028 26.4402C8.42488 26.4402 4.71976 24.5906 3.77464 24.0571C3.68187 23.5933 3.64128 22.7873 3.65287 22.2655C3.65287 22.2191 3.65867 22.1727 3.65867 22.1205C3.69926 20.7985 3.85002 19.3547 5.20102 18.8735C8.08858 18.1313 10.3963 16.5193 10.4949 16.4556C10.8486 16.2062 10.9355 15.7192 10.6862 15.3655C10.4369 15.0118 9.94983 14.9248 9.59613 15.1741C9.57294 15.1915 7.41017 16.6991 4.78354 17.3659C4.76035 17.3717 4.74296 17.3775 4.72556 17.3833C2.2091 18.2472 2.13372 20.9319 2.09893 22.0741C2.09893 22.1263 2.09893 22.1727 2.09313 22.2191C2.09313 22.2249 2.09313 22.2307 2.09313 22.2365C2.08733 22.538 2.08153 24.0861 2.38884 24.8631C2.44683 25.0139 2.5512 25.1414 2.69036 25.2284C2.86431 25.3444 7.03328 28 14.0086 28C20.984 28 25.153 25.3386 25.3269 25.2284C25.4603 25.1414 25.5705 25.0139 25.6284 24.8631C25.9184 24.0919 25.9126 22.5438 25.9068 22.2423Z" fill="#565656"/>
</svg>
