<svg width="74" height="22" viewBox="0 0 74 22" fill="none" xmlns="http://www.w3.org/2000/svg">
<path d="M38.368 10.466C39.1 10.67 39.676 11.042 40.096 11.582C40.516 12.11 40.726 12.782 40.726 13.598C40.726 14.69 40.312 15.53 39.484 16.118C38.668 16.706 37.474 17 35.902 17H29.89V4.4H35.542C36.982 4.4 38.092 4.688 38.872 5.264C39.664 5.84 40.06 6.638 40.06 7.658C40.06 8.318 39.904 8.888 39.592 9.368C39.292 9.848 38.884 10.214 38.368 10.466ZM31.69 5.858V9.89H35.38C36.304 9.89 37.012 9.722 37.504 9.386C38.008 9.038 38.26 8.534 38.26 7.874C38.26 7.214 38.008 6.716 37.504 6.38C37.012 6.032 36.304 5.858 35.38 5.858H31.69ZM35.83 15.542C36.85 15.542 37.618 15.374 38.134 15.038C38.65 14.702 38.908 14.174 38.908 13.454C38.908 12.05 37.882 11.348 35.83 11.348H31.69V15.542H35.83ZM46.735 7.37C48.055 7.37 49.063 7.694 49.759 8.342C50.467 8.99 50.821 9.956 50.821 11.24V17H49.183V15.74C48.895 16.184 48.481 16.526 47.941 16.766C47.413 16.994 46.783 17.108 46.051 17.108C44.983 17.108 44.125 16.85 43.477 16.334C42.841 15.818 42.523 15.14 42.523 14.3C42.523 13.46 42.829 12.788 43.441 12.284C44.053 11.768 45.025 11.51 46.357 11.51H49.093V11.168C49.093 10.424 48.877 9.854 48.445 9.458C48.013 9.062 47.377 8.864 46.537 8.864C45.973 8.864 45.421 8.96 44.881 9.152C44.341 9.332 43.885 9.578 43.513 9.89L42.793 8.594C43.285 8.198 43.873 7.898 44.557 7.694C45.241 7.478 45.967 7.37 46.735 7.37ZM46.339 15.776C46.999 15.776 47.569 15.632 48.049 15.344C48.529 15.044 48.877 14.624 49.093 14.084V12.752H46.429C44.965 12.752 44.233 13.244 44.233 14.228C44.233 14.708 44.419 15.086 44.791 15.362C45.163 15.638 45.679 15.776 46.339 15.776ZM58.2296 17.108C57.2576 17.108 56.3876 16.898 55.6196 16.478C54.8636 16.058 54.2696 15.482 53.8376 14.75C53.4056 14.006 53.1896 13.166 53.1896 12.23C53.1896 11.294 53.4056 10.46 53.8376 9.728C54.2696 8.984 54.8636 8.408 55.6196 8C56.3876 7.58 57.2576 7.37 58.2296 7.37C59.0936 7.37 59.8616 7.544 60.5336 7.892C61.2176 8.24 61.7456 8.744 62.1176 9.404L60.8036 10.25C60.5036 9.794 60.1316 9.452 59.6876 9.224C59.2436 8.996 58.7516 8.882 58.2116 8.882C57.5876 8.882 57.0236 9.02 56.5196 9.296C56.0276 9.572 55.6376 9.968 55.3496 10.484C55.0736 10.988 54.9356 11.57 54.9356 12.23C54.9356 12.902 55.0736 13.496 55.3496 14.012C55.6376 14.516 56.0276 14.906 56.5196 15.182C57.0236 15.458 57.5876 15.596 58.2116 15.596C58.7516 15.596 59.2436 15.482 59.6876 15.254C60.1316 15.026 60.5036 14.684 60.8036 14.228L62.1176 15.056C61.7456 15.716 61.2176 16.226 60.5336 16.586C59.8616 16.934 59.0936 17.108 58.2296 17.108ZM67.9398 12.554L65.9598 14.39V17H64.2318V3.644H65.9598V12.212L71.1618 7.46H73.2498L69.2358 11.402L73.6458 17H71.5218L67.9398 12.554Z" fill="#565656"/>
<path d="M0.292892 10.2929C-0.0976315 10.6834 -0.0976315 11.3166 0.292892 11.7071L6.65685 18.0711C7.04738 18.4616 7.68054 18.4616 8.07107 18.0711C8.46159 17.6805 8.46159 17.0474 8.07107 16.6569L2.41421 11L8.07107 5.34315C8.46159 4.95262 8.46159 4.31946 8.07107 3.92893C7.68054 3.53841 7.04738 3.53841 6.65685 3.92893L0.292892 10.2929ZM22 10L1 10V12L22 12V10Z" fill="#BDBEC1"/>
</svg>
