<svg width="22" height="22" viewBox="0 0 22 22" fill="none" xmlns="http://www.w3.org/2000/svg">
<path d="M21.6026 4.89674L19.6723 2.96645C19.4076 2.70158 19.0857 2.56909 18.7074 2.56909C18.3286 2.56909 18.0067 2.70158 17.7421 2.96645L8.43096 12.2916L4.25804 8.10448C3.99306 7.8395 3.67136 7.70716 3.29299 7.70716C2.91437 7.70716 2.59267 7.8395 2.3277 8.10448L0.397412 10.0348C0.132438 10.2997 0 10.6215 0 11.0001C0 11.3784 0.132438 11.7005 0.397412 11.9653L5.53538 17.1032L7.46582 19.0335C7.73065 19.2986 8.05244 19.4309 8.43096 19.4309C8.80934 19.4309 9.13113 19.2982 9.39611 19.0335L11.3265 17.1032L21.6026 6.82718C21.8673 6.5622 22 6.24046 22 5.86189C22.0002 5.48351 21.8673 5.16172 21.6026 4.89674Z" fill="#565656"/>
</svg>
