<svg width="28" height="28" viewBox="0 0 28 28" fill="none" xmlns="http://www.w3.org/2000/svg">
<path d="M22.2031 10.7739V8.20312C22.2031 3.67987 18.5233 0 14 0C9.47675 0 5.79688 3.67987 5.79688 8.20312V10.7739C4.55017 11.0279 3.60938 12.1327 3.60938 13.4531V16.5577C3.60938 16.8598 3.85419 17.1046 4.15625 17.1046C4.45831 17.1046 4.70312 16.8598 4.70312 16.5577V13.4531C4.70312 12.5484 5.43906 11.8125 6.34375 11.8125H21.6562C22.5609 11.8125 23.2969 12.5484 23.2969 13.4531V25.2656C23.2969 25.9785 22.8397 26.5865 22.2031 26.8123V23.5156C22.2031 23.2136 21.9583 22.9688 21.6562 22.9688C21.3542 22.9688 21.1094 23.2136 21.1094 23.5156V26.9062H6.34375C5.43906 26.9062 4.70312 26.1703 4.70312 25.2656V20.9453C4.70312 20.6432 4.45831 20.3984 4.15625 20.3984C3.85419 20.3984 3.60938 20.6432 3.60938 20.9453V25.2656C3.60938 26.7734 4.836 28 6.34375 28H21.6562C23.164 28 24.3906 26.7734 24.3906 25.2656V13.4531C24.3906 12.1327 23.4498 11.0279 22.2031 10.7739ZM9.84375 10.7188V8.20312C9.84375 5.91138 11.7083 4.04688 14 4.04688C16.2917 4.04688 18.1562 5.91138 18.1562 8.20312V10.7188H9.84375ZM19.25 10.7188V8.20312C19.25 5.30832 16.8948 2.95312 14 2.95312C11.1052 2.95312 8.75 5.30832 8.75 8.20312V10.7188H6.89062V8.20312C6.89062 4.28293 10.0798 1.09375 14 1.09375C17.9202 1.09375 21.1094 4.28293 21.1094 8.20312V10.7188H19.25Z" fill="#565656"/>
<path d="M4.15625 19.2767C4.30002 19.2767 4.44122 19.2184 4.54291 19.1165C4.64459 19.0148 4.70312 18.8738 4.70312 18.7299C4.70312 18.5861 4.64459 18.4449 4.54291 18.3434C4.44122 18.2415 4.30002 18.183 4.15625 18.183C4.01248 18.183 3.87128 18.2415 3.76959 18.3434C3.66791 18.4449 3.60938 18.5861 3.60938 18.7299C3.60938 18.8738 3.66791 19.0148 3.76959 19.1165C3.87128 19.2184 4.01248 19.2767 4.15625 19.2767Z" fill="#565656"/>
<path d="M14 25.0469C14.9047 25.0469 15.6407 24.3109 15.6407 23.4062V20.5023C16.4622 19.9584 16.9602 19.0441 16.9602 18.0422C16.9602 16.4139 15.6353 15.0891 14.0071 15.0891C12.3786 15.0891 11.054 16.4139 11.054 18.0422C11.054 19.0368 11.5464 19.9477 12.3594 20.4929V23.4062C12.3594 24.3109 13.0953 25.0469 14 25.0469ZM12.1477 18.0422C12.1477 17.0168 12.9817 16.1828 14.0071 16.1828C15.0323 16.1828 15.8665 17.0168 15.8665 18.0422C15.8665 18.7463 15.4755 19.3818 14.8464 19.7012C14.6627 19.7943 14.5469 19.9827 14.5469 20.1889V23.4062C14.5469 23.7079 14.3017 23.9531 14 23.9531C13.6984 23.9531 13.4532 23.7079 13.4532 23.4062V20.1816C13.4532 19.977 13.3389 19.7894 13.1569 19.6956C12.5344 19.3748 12.1477 18.7411 12.1477 18.0422Z" fill="#565656"/>
<path d="M21.6562 21.8203C21.8007 21.8203 21.9412 21.7618 22.0429 21.6601C22.1446 21.5584 22.2031 21.4178 22.2031 21.2734C22.2031 21.129 22.1446 20.9885 22.0429 20.8868C21.9412 20.7851 21.8007 20.7266 21.6562 20.7266C21.5125 20.7266 21.3713 20.7851 21.2696 20.8868C21.1679 20.9885 21.1094 21.1297 21.1094 21.2734C21.1094 21.4172 21.1679 21.5584 21.2696 21.6601C21.3713 21.7618 21.5125 21.8203 21.6562 21.8203Z" fill="#565656"/>
</svg>
