<svg width="28" height="28" viewBox="0 0 28 28" fill="none" xmlns="http://www.w3.org/2000/svg">
<g clip-path="url(#clip0)">
<path d="M27.9945 10.7043C27.9916 10.6721 27.9852 10.6403 27.9753 10.6095C27.9689 10.582 27.96 10.5552 27.9487 10.5292C27.9357 10.5039 27.92 10.48 27.9021 10.4578C27.8841 10.4315 27.8633 10.4073 27.84 10.3855C27.8325 10.379 27.8293 10.37 27.8214 10.3635L23.3332 6.87785V3.26523C23.3332 2.49201 22.7063 1.86516 21.9331 1.86516H16.8756L14.8506 0.292864C14.3503 -0.0972959 13.6488 -0.0972959 13.1486 0.292864L11.1231 1.86516H6.06557C5.29236 1.86516 4.6655 2.49196 4.6655 3.26523V6.8779L0.178765 10.3636C0.170835 10.3701 0.167553 10.379 0.160115 10.3855C0.136872 10.4073 0.116035 10.4316 0.0980418 10.4579C0.0801034 10.48 0.064462 10.5039 0.051391 10.5293C0.0400701 10.5552 0.0312103 10.5821 0.0248116 10.6096C0.0150767 10.6399 0.00867793 10.6712 0.00566996 10.7029C0.00566996 10.7127 9.15527e-05 10.7212 9.15527e-05 10.7309V26.5997C0.000747836 26.8966 0.096784 27.1853 0.274035 27.4234C0.276824 27.4276 0.277317 27.4328 0.280543 27.4365C0.283825 27.4402 0.290825 27.4444 0.295474 27.4495C0.557659 27.7945 0.96543 27.9979 1.39874 27.9998H26.6C27.035 27.9985 27.4445 27.7941 27.707 27.4472C27.7107 27.4426 27.7164 27.4412 27.7196 27.4365C27.7229 27.4319 27.7233 27.4277 27.7261 27.4235C27.9034 27.1853 27.9994 26.8966 28.0001 26.5998V10.7323C28 10.7225 27.995 10.714 27.9945 10.7043ZM13.7193 1.02927C13.8823 0.899762 14.1131 0.899762 14.2761 1.02927L15.3527 1.8651H12.6459L13.7193 1.02927ZM1.51632 27.0664L13.7194 17.5875C13.8825 17.4582 14.1131 17.4582 14.2761 17.5875L26.4824 27.0664H1.51632ZM27.0667 26.3388L14.8506 16.851C14.3502 16.4612 13.6489 16.4612 13.1486 16.851L0.932014 26.3388V11.443L8.57968 17.3817C8.78346 17.5397 9.07671 17.5026 9.23471 17.2988C9.39271 17.095 9.35563 16.8018 9.15185 16.6438L1.38239 10.6109L4.66556 8.05948V11.6656C4.66556 11.9234 4.87453 12.1323 5.13223 12.1323C5.38998 12.1323 5.5989 11.9233 5.5989 11.6656V3.26517C5.5989 3.00742 5.80782 2.7985 6.06557 2.7985H21.933C22.1908 2.7985 22.3997 3.00742 22.3997 3.26517V11.6656C22.3997 11.9234 22.6086 12.1323 22.8664 12.1323C23.1241 12.1323 23.333 11.9233 23.333 11.6656V8.05948L26.6162 10.6109L18.8332 16.6546C18.6994 16.756 18.6303 16.9216 18.6525 17.0881C18.6747 17.2547 18.7847 17.3964 18.9405 17.4593C19.0963 17.5221 19.2739 17.4964 19.4054 17.3919L27.0666 11.443V26.3388H27.0667Z" fill="#565656"/>
<path d="M19.5996 11.1989V9.33215C19.5996 6.2392 17.0923 3.73187 13.9993 3.73187C10.9064 3.73187 8.39905 6.2392 8.39905 9.33215C8.39905 12.4251 10.9064 14.9324 13.9993 14.9324C14.2571 14.9324 14.466 14.7235 14.466 14.4658C14.466 14.208 14.2571 13.9991 13.9993 13.9991C11.4219 13.9991 9.33245 11.9096 9.33245 9.3322C9.33245 6.75476 11.4219 4.66533 13.9993 4.66533C16.5768 4.66533 18.6662 6.75476 18.6662 9.3322V11.1989C18.6662 11.7145 18.2483 12.1323 17.7328 12.1323C17.2173 12.1323 16.7994 11.7145 16.7994 11.1989V9.3322C16.7994 9.07445 16.5905 8.86553 16.3327 8.86553C16.075 8.86553 15.8661 9.07445 15.8661 9.3322C15.8661 10.3632 15.0303 11.1989 13.9993 11.1989C12.9684 11.1989 12.1326 10.3632 12.1326 9.3322C12.1326 8.30124 12.9684 7.46546 13.9993 7.46546C14.2571 7.46546 14.466 7.25655 14.466 6.99879C14.466 6.74104 14.2571 6.53212 13.9993 6.53212C12.7461 6.52933 11.6436 7.35958 11.3001 8.56485C10.9567 9.77011 11.4558 11.0568 12.5223 11.7151C13.5888 12.3733 14.9627 12.2428 15.8861 11.3955C15.9878 12.3824 16.8456 13.1163 17.8363 13.0638C18.8272 13.0113 19.6027 12.1911 19.5996 11.1989Z" fill="#565656"/>
</g>
<defs>
<clipPath id="clip0">
<rect width="28" height="28" fill="white"/>
</clipPath>
</defs>
</svg>
